# This file uses centimeters as units for non-parametric coordinates.

mtllib ship.mtl
g default
v 0.000000 -0.023891 4.165896
v 0.023891 0.000000 4.165896
v -0.023891 0.000000 4.165896
v 0.000000 0.023891 4.165896
v -0.045011 0.000000 -2.111811
v 0.000000 0.045011 -2.111811
v 0.000000 -0.045011 -2.111811
v 0.045011 0.000000 -2.111811
v 0.000000 0.823314 0.000000
v 0.000000 -0.678427 0.000000
v -1.067924 0.073187 0.000000
v -1.067924 0.000000 0.231800
v -1.067924 -0.073187 0.000000
v -1.067924 0.000000 -0.231799
v 1.067923 0.000000 0.231800
v 1.067923 -0.073187 0.000000
v 1.067923 0.073187 0.000000
v 1.067923 0.000000 -0.231799
v -1.631820 0.739374 0.000000
v -1.631821 0.000000 1.954451
v -1.631820 -0.739374 0.000000
v -1.631819 0.000000 -1.954450
v 1.631817 0.739374 0.000000
v 1.631818 0.000000 -1.954450
v 1.631817 -0.739374 0.000000
v 1.631818 0.000000 1.954450
v 2.267779 0.042903 0.000000
v 2.267779 0.000000 -0.113408
v 2.267779 -0.042903 0.000000
v 2.267779 0.000000 0.113408
v -2.267781 0.042903 0.000000
v -2.267781 0.000000 0.113408
v -2.267781 -0.042903 0.000000
v -2.267781 0.000000 -0.113408
vt 0.567386 0.766350
vt 0.563791 0.762756
vt 0.567386 0.759161
vt 0.570981 0.762756
vt 0.592863 0.763202
vt 0.586090 0.769975
vt 0.579317 0.763202
vt 0.586090 0.756429
vt 0.272641 0.311432
vt 0.426560 0.028544
vt 0.433333 0.028544
vt 0.433333 0.346311
vt 0.272641 0.346311
vt 0.440106 0.028544
vt 0.594024 0.311432
vt 0.594024 0.346311
vt 0.433333 0.973157
vt 0.429738 0.973157
vt 0.272641 0.381190
vt 0.187791 0.346311
vt 0.187791 0.052222
vt 0.678874 0.346311
vt 0.678874 0.052223
vt 0.594024 0.381190
vt 0.436928 0.973157
vt 0.187791 0.640399
vt 0.092097 0.346311
vt 0.092097 0.329246
vt 0.678874 0.640399
vt 0.774568 0.329246
vt 0.774568 0.346311
vt 0.092097 0.363375
vt 0.774568 0.363375
vt 0.802403 0.363249
vt 0.795947 0.346184
vt 0.802403 0.329119
vt 0.808859 0.346184
vt 0.802403 0.052096
vt 0.913657 0.346184
vt 0.802403 0.640272
vt 0.808763 0.346194
vt 0.802307 0.363258
vt 0.795851 0.346194
vt 0.802307 0.329129
vt 0.913561 0.346194
vt 0.802307 0.640282
vt 0.802307 0.052106
vt 0.433302 0.347601
vt 0.433302 0.974448
vt 0.429707 0.974448
vt 0.272610 0.382480
vt 0.272610 0.347601
vt 0.593993 0.382480
vt 0.436897 0.974448
vt 0.593993 0.347601
vt 0.187761 0.347601
vt 0.187760 0.641689
vt 0.272610 0.312722
vt 0.426529 0.029835
vt 0.433302 0.029835
vt 0.440075 0.029835
vt 0.593993 0.312722
vt 0.678844 0.347601
vt 0.678844 0.641689
vt 0.187760 0.053513
vt 0.678843 0.053513
vn 0.000000 0.000000 1.000000
vn 0.000000 0.000000 1.000000
vn 0.000000 0.000000 1.000000
vn 0.000000 0.000000 1.000000
vn 0.000000 0.000000 -1.000000
vn 0.000000 0.000000 -1.000000
vn 0.000000 0.000000 -1.000000
vn 0.000000 0.000000 -1.000000
vn 0.510836 -0.857620 -0.059449
vn 0.513791 -0.846137 0.141676
vn 0.513791 -0.846137 0.141676
vn 0.513791 -0.846137 0.141676
vn 0.510836 -0.857620 -0.059449
vn 0.581831 0.810560 -0.066830
vn 0.583778 0.796186 0.159029
vn 0.583778 0.796186 0.159029
vn 0.583778 0.796186 0.159029
vn 0.581831 0.810560 -0.066830
vn -0.513790 -0.846137 0.141676
vn -0.513790 -0.846137 0.141676
vn -0.513790 -0.846137 0.141676
vn -0.510836 -0.857621 -0.059449
vn -0.510836 -0.857621 -0.059449
vn -0.550080 0.783414 -0.289265
vn -0.550080 0.783414 -0.289265
vn -0.550080 0.783414 -0.289265
vn -0.581830 0.810560 -0.066830
vn -0.581830 0.810560 -0.066830
vn -0.487145 -0.834292 -0.258160
vn -0.487145 -0.834292 -0.258160
vn -0.487145 -0.834292 -0.258160
vn 0.487145 -0.834292 -0.258160
vn 0.487145 -0.834292 -0.258160
vn 0.487145 -0.834292 -0.258160
vn 0.550080 0.783414 -0.289265
vn 0.550080 0.783414 -0.289265
vn 0.550080 0.783414 -0.289265
vn -0.583778 0.796186 0.159029
vn -0.583778 0.796186 0.159029
vn -0.583778 0.796186 0.159029
vn 1.000000 0.000000 0.000000
vn 1.000000 0.000000 0.000000
vn 1.000000 0.000000 0.000000
vn 1.000000 0.000000 0.000000
vn -0.735584 0.634993 -0.236008
vn -0.735584 0.634993 -0.236008
vn -0.735584 0.634993 -0.236008
vn -0.735584 0.634993 -0.236008
vn -0.735584 -0.634993 -0.236008
vn -0.735584 -0.634993 -0.236008
vn -0.735584 -0.634993 -0.236008
vn -0.735584 -0.634993 -0.236008
vn -0.735584 -0.634993 0.236008
vn -0.735584 -0.634993 0.236008
vn -0.735584 -0.634993 0.236008
vn -0.735584 -0.634993 0.236008
vn -0.735584 0.634993 0.236008
vn -0.735584 0.634993 0.236008
vn -0.735584 0.634993 0.236008
vn -0.735584 0.634993 0.236008
vn 0.715544 0.653377 0.247175
vn 0.738457 0.674300 -0.000000
vn 0.738457 0.674300 -0.000000
vn 0.715544 0.653377 0.247175
vn 0.738457 -0.674300 -0.000000
vn 0.715544 -0.653377 0.247174
vn 0.715544 -0.653377 0.247174
vn 0.738457 -0.674300 -0.000000
vn 0.715544 -0.653377 -0.247175
vn 0.715544 -0.653377 -0.247175
vn 0.715544 0.653377 -0.247175
vn 0.715544 0.653377 -0.247175
vn -0.738459 0.674299 -0.000000
vn -0.715545 0.653376 0.247174
vn -0.715545 0.653376 0.247174
vn -0.738459 0.674299 -0.000000
vn -0.715545 -0.653376 0.247174
vn -0.738459 -0.674299 -0.000000
vn -0.738459 -0.674299 -0.000000
vn -0.715545 -0.653376 0.247174
vn -0.715545 0.653376 -0.247175
vn -0.715545 0.653376 -0.247175
vn -0.715545 -0.653376 -0.247175
vn -0.715545 -0.653376 -0.247175
vn 0.735582 0.634995 0.236008
vn 0.735582 0.634995 0.236008
vn 0.735582 0.634995 0.236008
vn 0.735582 0.634995 0.236008
vn 0.735582 -0.634995 0.236008
vn 0.735582 -0.634995 0.236008
vn 0.735582 -0.634995 0.236008
vn 0.735582 -0.634995 0.236008
vn 0.735583 0.634995 -0.236008
vn 0.735583 0.634995 -0.236008
vn 0.735583 0.634995 -0.236008
vn 0.735583 0.634995 -0.236008
vn 0.735583 -0.634995 -0.236008
vn 0.735583 -0.634995 -0.236008
vn 0.735583 -0.634995 -0.236008
vn 0.735583 -0.634995 -0.236008
vn -1.000000 0.000000 0.000000
vn -1.000000 0.000000 0.000000
vn -1.000000 0.000000 0.000000
vn -1.000000 0.000000 0.000000
s off
g pCube3
usemtl initialShadingGroup
f 4/1/1 3/2/2 1/3/3 2/4/4
f 8/5/5 7/6/6 5/7/7 6/8/8
s 1
f 16/16/9 15/24/10 2/25/11 1/17/12 10/12/13
s 2
f 9/48/14 4/49/15 2/50/16 15/51/17 17/52/18
s 3
f 1/17/19 3/18/20 12/19/21 13/13/22 10/12/23
s 4
f 6/60/24 5/61/25 14/62/26 11/55/27 9/48/28
s 3
f 14/9/29 5/10/30 7/11/31 10/12/23 13/13/22
s 1
f 10/12/13 7/11/32 8/14/33 18/15/34 16/16/9
s 2
f 17/52/18 18/58/35 8/59/36 6/60/37 9/48/14
s 4
f 12/53/38 3/54/39 4/49/40 9/48/28 11/55/27
s off
f 30/34/41 29/35/42 28/36/43 27/37/44
f 18/58/45 17/52/46 23/56/47 24/65/48
f 25/22/49 16/16/50 18/15/51 24/23/52
f 15/24/53 16/16/54 25/22/55 26/29/56
f 23/56/57 17/52/58 15/51/59 26/57/60
s 5
f 30/34/61 27/37/62 23/39/63 26/40/64
s 6
f 29/31/65 30/33/66 26/29/67 25/22/68
f 28/30/69 29/31/65 25/22/68 24/23/70
s 5
f 27/37/62 28/36/71 24/38/72 23/39/63
s 7
f 31/41/73 32/44/74 20/47/75 19/45/76
s 8
f 32/32/77 33/27/78 21/20/79 20/26/80
s 7
f 34/42/81 31/41/73 19/45/76 22/46/82
s 8
f 33/27/78 34/28/83 22/21/84 21/20/79
s off
f 12/53/85 11/55/86 19/63/87 20/64/88
f 21/20/89 13/13/90 12/19/91 20/26/92
f 19/63/93 11/55/94 14/62/95 22/66/96
f 14/9/97 13/13/98 21/20/99 22/21/100
f 31/41/101 34/42/102 33/43/103 32/44/104
